<svg xmlns="http://www.w3.org/2000/svg" width="59.399" height="58.085" viewBox="0 0 59.399 58.085"><defs><style>.a,.b{fill:#549;}.b{opacity:0.12;}</style></defs><g transform="translate(-351 -621.962)"><g transform="translate(365.923 616.305)"><path class="a" d="M29.281,32.994H20.423V25.663a3.014,3.014,0,0,0-3.014-3.014H3.014A3.014,3.014,0,0,0,0,25.663v8.871a3.014,3.014,0,0,0,3.014,3.014h.494v4.189l6.259-4.188h2.107V44.88a3.014,3.014,0,0,0,3.014,3.014h7.643l6.257,4.189V47.895h.493A3.014,3.014,0,0,0,32.3,44.88V36.01A3.014,3.014,0,0,0,29.281,33ZM5.4,38.194Z" transform="translate(0 0)"/><path class="a" d="M303.962,286.232h7.207v2.313h-7.207Z" transform="translate(-285.444 -247.169)"/><path class="a" d="M118.444,96.346v-2h2V92.451h-2v-2h-1.893v2h-2v1.893h2v2Z" transform="translate(-107.323 -63.525)"/></g><path class="b" d="M8143.047-669.036c-18.574-3.963,16,28.815,32.792,20.3s-2.583-48-7.1-35.747S8161.621-665.073,8143.047-669.036Z" transform="matrix(0.819, -0.574, 0.574, 0.819, -5921.082, 5877.897)"/></g></svg>