<svg xmlns="http://www.w3.org/2000/svg" width="59.399" height="58.085" viewBox="0 0 59.399 58.085"><defs><style>.a,.b{fill:#03a76a;}.a{opacity:0.12;}</style></defs><g transform="translate(-198 -203.962)"><g transform="translate(-152 -421)"><path class="a" d="M8143.047-669.036c-18.574-3.963,16,28.815,32.792,20.3s-2.583-48-7.1-35.747S8161.621-665.073,8143.047-669.036Z" transform="matrix(0.819, -0.574, 0.574, 0.819, -5922.082, 5880.897)"/></g><g transform="translate(210.768 212.521)"><path class="b" d="M10.065,5.413V15.449a3.62,3.62,0,0,1-.439,1.727L7.716,20.7H22.068l-1.911-3.52a3.619,3.619,0,0,1-.439-1.727V5.413h1.609a1.207,1.207,0,1,0,0-2.413H8.457a1.207,1.207,0,1,0,0,2.413Z" transform="translate(1.413)"/><path class="b" d="M24.791,15.5H7.819L5.273,20.19a2.815,2.815,0,0,0,2.474,4.159H24.863a2.815,2.815,0,0,0,2.474-4.159Z" transform="translate(0 7.61)"/></g></g></svg>