<svg xmlns="http://www.w3.org/2000/svg" width="59.399" height="58.085" viewBox="0 0 59.399 58.085"><defs><style>.a,.b{fill:#da2228;}.a{opacity:0.12;}</style></defs><g transform="translate(-348 -480.962)"><path class="a" d="M8143.047-669.036c-18.574-3.963,16,28.815,32.792,20.3s-2.583-48-7.1-35.747S8161.621-665.073,8143.047-669.036Z" transform="matrix(0.819, -0.574, 0.574, 0.819, -5924.082, 5736.897)"/><g transform="translate(365.332 490.498)"><g transform="translate(4.75 2.001)"><path class="b" d="M21.472,28.349,21.022,30.3a3.488,3.488,0,0,1-3.129,2.69l-.268.01H14.351a3.488,3.488,0,0,1-3.328-2.444l-.07-.259-.45-1.948ZM15.988,2A11.238,11.238,0,0,1,27.226,13.239c0,3.312-1.45,6.345-4.287,9.053a.388.388,0,0,0-.11.193l-.818,3.538H9.964l-.815-3.538a.387.387,0,0,0-.11-.193C6.2,19.584,4.75,16.551,4.75,13.239A11.238,11.238,0,0,1,15.988,2Z" transform="translate(-4.75 -2.001)"/></g></g></g></svg>