<svg xmlns="http://www.w3.org/2000/svg" width="59.399" height="58.085" viewBox="0 0 59.399 58.085"><defs><style>.a,.b{fill:#03a76a;}.b{opacity:0.12;}</style></defs><g transform="translate(-700 -621.962)"><g transform="translate(717.07 633.999)"><path class="a" d="M32.99,11.587l-21.4,21.4L7.794,29.2a2.985,2.985,0,1,0-4-4L0,21.406,21.4,0,25.2,3.793a2.95,2.95,0,0,0-.746.53,2.984,2.984,0,0,0,4.22,4.22A2.87,2.87,0,0,0,29.2,7.8Z"/></g><path class="b" d="M8143.047-669.036c-18.574-3.963,16,28.815,32.792,20.3s-2.583-48-7.1-35.747S8161.621-665.073,8143.047-669.036Z" transform="matrix(0.819, -0.574, 0.574, 0.819, -5572.082, 5877.897)"/></g></svg>