<svg xmlns="http://www.w3.org/2000/svg" width="46.715" height="44.383" viewBox="0 0 46.715 44.383"><defs><style>.a{fill:#032261;}.b{fill:none;stroke:#fff;stroke-linecap:round;stroke-width:3.3px;}</style></defs><g transform="translate(-170.46 -565.387)"><g transform="translate(170.46 565.387)"><path class="a" d="M2,30.445a7.591,7.591,0,0,0,7.591,7.591h1.75l0,7.011a2.336,2.336,0,0,0,3.686,1.905l6.051-4.288.82-3.281a8.607,8.607,0,0,1,2.264-4L37.951,21.6a7.674,7.674,0,0,1,10.764-.088V10.591A7.591,7.591,0,0,0,41.123,3H9.591A7.591,7.591,0,0,0,2,10.591Z" transform="translate(-2 -3)"/><path class="a" d="M27.581,12.564,13.795,26.35a6.269,6.269,0,0,0-1.65,2.914L11.076,33.54a2.539,2.539,0,0,0,3.079,3.079l4.276-1.069a6.269,6.269,0,0,0,2.914-1.65L35.131,20.114a5.339,5.339,0,0,0-7.55-7.55Z" transform="translate(10.019 7.686)"/></g><line class="b" x2="29.178" y2="0.045" transform="translate(178.322 577.612)"/><path class="b" d="M0,0H24.489" transform="translate(178.322 587.482)"/></g></svg>