<svg width="19" height="22" viewBox="0 0 19 22" fill="none" xmlns="http://www.w3.org/2000/svg">
<path d="M10.9818 20.6096H8.09509" stroke="#333333" stroke-width="1.01877" stroke-miterlimit="10" stroke-linecap="round" stroke-linejoin="round"/>
<path d="M14.5295 9.57552C14.773 11.3184 14.1191 12.9154 12.9714 13.9778C12.2062 14.686 11.8027 15.6928 11.8027 16.7274V17.8453C11.8027 18.4217 11.4828 18.7341 11.0932 18.7341H7.99083C7.60129 18.7341 7.28132 18.4147 7.28132 18.0259V16.7344C7.28132 15.7137 6.90569 14.6999 6.14748 14.0194C5.1319 13.1029 4.4989 11.7766 4.4989 10.2977C4.4989 7.33274 7.06568 4.95803 10.1194 5.29827C12.1784 5.52046 14.2443 7.52022 14.5295 9.57552Z" stroke="#333333" stroke-width="1.01877" stroke-miterlimit="10" stroke-linecap="round" stroke-linejoin="round"/>
<path d="M11.8235 15.3383H7.14905V18.4213H11.8235V15.3383Z" fill="#333333"/>
<path d="M9.41687 2.81918V1" stroke="#333333" stroke-width="1.11589" stroke-miterlimit="10" stroke-linecap="round" stroke-linejoin="round"/>
<path d="M2.97541 6.19324L1.45898 5.1864" stroke="#333333" stroke-width="1.11589" stroke-miterlimit="10" stroke-linecap="round" stroke-linejoin="round"/>
<path d="M16.2336 6.19324L17.75 5.1864" stroke="#333333" stroke-width="1.11589" stroke-miterlimit="10" stroke-linecap="round" stroke-linejoin="round"/>
<path d="M18.0699 14.9156L16.5605 13.9088" stroke="#333333" stroke-width="1.11589" stroke-miterlimit="10" stroke-linecap="round" stroke-linejoin="round"/>
<path d="M1 14.9156L2.51642 13.9088" stroke="#333333" stroke-width="1.11589" stroke-miterlimit="10" stroke-linecap="round" stroke-linejoin="round"/>
</svg>
