<svg xmlns="http://www.w3.org/2000/svg" width="54.79" height="52.075" viewBox="0 0 54.79 52.075"><defs><style>.a{fill:#032261;}.b{fill:#fff;font-size:16px;font-family:Arial-BoldMT, Arial;font-weight:700;}</style></defs><g transform="translate(-773 -558)"><g transform="translate(771 556)"><g transform="translate(2 2)"><path class="a" d="M25.971,34.874a6.164,6.164,0,0,1,6.164,6.164v4.115l-.022.3c-.851,5.825-6.083,8.626-14.863,8.626-8.748,0-14.063-2.769-15.211-8.526l-.04-.4V41.038a6.164,6.164,0,0,1,6.164-6.164Zm-8.9-21.916a9.588,9.588,0,1,1-9.588,9.588A9.588,9.588,0,0,1,17.067,12.958ZM50.626,2A6.164,6.164,0,0,1,56.79,8.164v9.588a6.164,6.164,0,0,1-6.164,6.164H46.372l-6.963,6.046a2.739,2.739,0,0,1-4.535-2.068l0-4.016a6.165,6.165,0,0,1-5.477-6.126V8.164A6.164,6.164,0,0,1,35.559,2Z" transform="translate(-2 -2)"/></g></g><text class="b" transform="translate(809 575)"><tspan x="0" y="0">?</tspan></text></g></svg>