<svg width="113" height="113" viewBox="0 0 113 113" fill="none" xmlns="http://www.w3.org/2000/svg">
<mask id="mask0" mask-type="alpha" maskUnits="userSpaceOnUse" x="0" y="0" width="113" height="113">
<path fill-rule="evenodd" clip-rule="evenodd" d="M0 0H112.557V112.557H0V0Z" fill="white"/>
</mask>
<g mask="url(#mask0)">
<path fill-rule="evenodd" clip-rule="evenodd" d="M112.557 56.2788C112.557 87.3608 87.361 112.557 56.2791 112.557C25.1971 112.557 -0.000427246 87.3608 -0.000427246 56.2788C-0.000427246 25.1969 25.1971 0 56.2791 0C87.361 0 112.557 25.1969 112.557 56.2788Z" fill="#F3F8FF"/>
</g>
<path fill-rule="evenodd" clip-rule="evenodd" d="M36.3307 17.361L33.671 15.4425C33.4533 15.2863 33.4046 14.9831 33.5615 14.7661L35.48 12.1057C35.6362 11.8887 35.9394 11.8392 36.1564 11.9962L38.8168 13.9147C39.0339 14.0709 39.0826 14.3741 38.9263 14.5918L37.0078 17.2515C36.8509 17.4685 36.5478 17.5179 36.3307 17.361Z" fill="#A1BCFA"/>
<path fill-rule="evenodd" clip-rule="evenodd" d="M104.406 48.9972C104.406 51.0887 102.71 52.7842 100.619 52.7842C98.5275 52.7842 96.832 51.0887 96.832 48.9972C96.832 46.9058 98.5275 45.2103 100.619 45.2103C102.71 45.2103 104.406 46.9058 104.406 48.9972Z" fill="#C0F9FF"/>
<path fill-rule="evenodd" clip-rule="evenodd" d="M80.0382 12.5238C80.0382 13.6276 79.1434 14.5224 78.0396 14.5224C76.9358 14.5224 76.041 13.6276 76.041 12.5238C76.041 11.42 76.9358 10.5252 78.0396 10.5252C79.1434 10.5252 80.0382 11.42 80.0382 12.5238Z" fill="#FF9797"/>
<path fill-rule="evenodd" clip-rule="evenodd" d="M15.5008 50.2512C15.5008 52.0802 14.0177 53.5634 12.188 53.5634C10.359 53.5634 8.87585 52.0802 8.87585 50.2512C8.87585 48.4222 10.359 46.9384 12.188 46.9384C14.0177 46.9384 15.5008 48.4222 15.5008 50.2512Z" fill="#FFCF36"/>
<path fill-rule="evenodd" clip-rule="evenodd" d="M89.6844 57.6424C89.6844 75.393 75.2947 89.7827 57.544 89.7827C39.7928 89.7827 25.403 75.393 25.403 57.6424C25.403 39.8911 39.7928 25.5014 57.544 25.5014C75.2947 25.5014 89.6844 39.8911 89.6844 57.6424Z" fill="#E6F0FF"/>
<path fill-rule="evenodd" clip-rule="evenodd" d="M57.5434 83.2562C40.8987 83.2562 27.2448 70.4832 25.8298 54.205C25.7497 55.1265 25.7003 56.056 25.7003 56.9976C25.7003 74.5846 39.9571 88.8408 57.5434 88.8408C75.1305 88.8408 89.3873 74.5846 89.3873 56.9976C89.3873 56.056 89.3379 55.1265 89.2578 54.205C87.8428 70.4832 74.1889 83.2562 57.5434 83.2562Z" fill="#E6F0FF"/>
<path fill-rule="evenodd" clip-rule="evenodd" d="M90.1056 57.6425C90.1056 75.6255 75.5269 90.2035 57.5439 90.2035C39.5609 90.2035 24.9828 75.6255 24.9828 57.6425C24.9828 39.6588 39.5609 25.0808 57.5439 25.0808C75.5269 25.0808 90.1056 39.6588 90.1056 57.6425Z" stroke="#07448E" stroke-width="2.67107" stroke-linecap="round" stroke-linejoin="round"/>
<path fill-rule="evenodd" clip-rule="evenodd" d="M84.8144 57.6424C84.8144 72.7032 72.6056 84.9127 57.5441 84.9127C42.4825 84.9127 30.2731 72.7032 30.2731 57.6424C30.2731 42.5809 42.4825 30.3714 57.5441 30.3714C72.6056 30.3714 84.8144 42.5809 84.8144 57.6424Z" fill="white"/>
<path fill-rule="evenodd" clip-rule="evenodd" d="M41.8125 53.392C41.8125 53.392 52.6697 55.4928 55.7327 49.8028L58.3424 42.2563C58.7457 41.089 59.8462 40.3051 61.0809 40.3051C63.0448 40.3051 64.588 41.9798 64.4264 43.9371C64.1894 46.8031 63.581 50.5086 62.0351 52.2541L69.6804 52.3169C71.4226 52.3309 72.8897 53.621 73.1281 55.3459C73.7618 59.9415 72.636 64.6065 69.9756 68.4068L69.6277 68.9036C68.9819 69.8271 67.9349 70.39 66.8077 70.4194L55.8676 70.7079C55.4903 70.7173 55.1171 70.6418 54.7738 70.4862L51.4443 68.9717L50.5682 70.8101L41.725 70.3727L41.8125 53.392Z" fill="#C0F9FF"/>
<path fill-rule="evenodd" clip-rule="evenodd" d="M50.6251 62.2104C50.6251 66.5075 52.9102 70.4253 47.0345 69.9899C41.0046 69.5432 43.4446 66.5075 43.4446 62.2104C43.4446 57.914 42.2493 54.9885 47.0345 54.4316C51.7136 53.8873 50.6251 57.914 50.6251 62.2104Z" fill="#A1BCFA"/>
<path fill-rule="evenodd" clip-rule="evenodd" d="M73.1278 55.3458C72.9508 54.0623 72.0921 53.0226 70.9475 52.5665C71.2761 56.8022 70.1455 61.0345 67.6968 64.5329L67.3496 65.0291C66.7025 65.9533 65.6561 66.5162 64.5283 66.5449L53.5882 66.8334C53.2123 66.8434 52.8383 66.7673 52.4958 66.6117L51.1682 65.0979L50.2935 66.9356L50.4257 66.6117L50.4063 70.3726L50.5686 70.81L51.444 68.9716L54.7742 70.4861C55.1167 70.6417 55.4907 70.7178 55.8673 70.7078L66.8074 70.4193C67.9352 70.3899 68.9816 69.8277 69.628 68.9035L69.9753 68.4073C72.6363 64.6064 73.7615 59.9414 73.1278 55.3458Z" fill="#87E9F4"/>
<path fill-rule="evenodd" clip-rule="evenodd" d="M43.1037 53.392C43.1037 53.392 52.6694 55.4928 55.7325 49.8028L58.3421 42.2563C58.7461 41.089 59.8459 40.3051 61.0813 40.3051C63.0445 40.3051 64.5884 41.9798 64.4268 43.9371C64.1891 46.8031 63.5808 50.5086 62.0355 52.2541L69.6808 52.3169C71.4224 52.3309 72.8895 53.621 73.1278 55.3459C73.7616 59.9415 72.6364 64.6065 69.9753 68.4068C69.9753 68.4068 68.6131 70.348 66.8074 70.4194C66.8074 70.4194 62.9016 70.7493 59.5541 70.7286C58.0316 70.7193 56.5211 70.4789 55.062 70.0455L51.4441 68.9717L50.5686 70.8101L43.0162 70.3727L43.1037 53.392Z" stroke="#07448E" stroke-width="2.67107" stroke-linecap="round" stroke-linejoin="round"/>
<path d="M51.006 53.3918V69.672" stroke="#07448E" stroke-width="2.67107" stroke-linecap="round" stroke-linejoin="round"/>
<path fill-rule="evenodd" clip-rule="evenodd" d="M45.7095 65.1697C46.4447 64.4345 47.636 64.4345 48.3705 65.1697C49.1058 65.9049 49.1058 67.0962 48.3705 67.8308C47.636 68.566 46.4447 68.566 45.7095 67.8308C44.9743 67.0962 44.9743 65.9049 45.7095 65.1697Z" fill="#07448E"/>
<path fill-rule="evenodd" clip-rule="evenodd" d="M84.873 57.6418C84.873 72.736 72.6375 84.9715 57.5439 84.9715C42.4504 84.9715 30.2142 72.736 30.2142 57.6418C30.2142 42.5482 42.4504 30.3127 57.5439 30.3127C72.6375 30.3127 84.873 42.5482 84.873 57.6418Z" stroke="#FC75AC" stroke-width="2.0033" stroke-linecap="round" stroke-dasharray="1.36 8.17"/>
</svg>
