<svg xmlns="http://www.w3.org/2000/svg" width="59.399" height="58.085" viewBox="0 0 59.399 58.085"><defs><style>.a,.b{fill:#008ccd;}.b{opacity:0.12;}</style></defs><g transform="translate(-700 -480.962)"><path class="a" d="M15.952,0a3.809,3.809,0,0,0-3.81,3.81V6.1h-6.1A3.047,3.047,0,0,0,3,9.143v6.1H5.286a3.81,3.81,0,0,1,0,7.619H3v6.1A3.047,3.047,0,0,0,6.048,32h6.1V29.714a3.81,3.81,0,0,1,7.619,0V32h6.1A3.047,3.047,0,0,0,28.9,28.952v-6.1H31.19a3.81,3.81,0,1,0,0-7.619H28.9v-6.1A3.047,3.047,0,0,0,25.857,6.1h-6.1V3.81A3.809,3.809,0,0,0,15.952,0Z" transform="translate(714.07 491)"/><path class="b" d="M8143.047-669.036c-18.574-3.963,16,28.815,32.792,20.3s-2.583-48-7.1-35.747S8161.621-665.073,8143.047-669.036Z" transform="matrix(0.819, -0.574, 0.574, 0.819, -5572.082, 5736.897)"/></g></svg>