<svg xmlns="http://www.w3.org/2000/svg" width="25.937" height="27.064" viewBox="0 0 25.937 27.064"><defs><style>.a{fill:#33934a;}</style></defs><path class="a" d="M22.214,24.144,24.162,25a1.038,1.038,0,0,0,1.175-.242,13.6,13.6,0,0,0,3.053-5.263,1.042,1.042,0,0,0-.376-1.146l-1.721-1.271a1.909,1.909,0,0,1,0-3.09l1.72-1.27a1.042,1.042,0,0,0,.376-1.146,13.6,13.6,0,0,0-3.054-5.263,1.037,1.037,0,0,0-1.176-.242l-1.94.854a1.879,1.879,0,0,1-.765.162,1.919,1.919,0,0,1-1.9-1.711l-.236-2.119a1.04,1.04,0,0,0-.806-.9A14.632,14.632,0,0,0,15.483,2a14.747,14.747,0,0,0-3.049.351,1.04,1.04,0,0,0-.807.9l-.236,2.118a1.925,1.925,0,0,1-.945,1.45,1.9,1.9,0,0,1-1.729.1l-1.94-.854A1.037,1.037,0,0,0,5.6,6.309a13.6,13.6,0,0,0-3.054,5.263,1.042,1.042,0,0,0,.376,1.147l1.721,1.269a1.919,1.919,0,0,1,0,3.089L2.923,18.349a1.042,1.042,0,0,0-.376,1.146A13.606,13.606,0,0,0,5.6,24.763a1.038,1.038,0,0,0,1.176.242l1.948-.855a1.914,1.914,0,0,1,2.667,1.541l.234,2.116a1.04,1.04,0,0,0,.792.9,13.16,13.16,0,0,0,6.1,0,1.041,1.041,0,0,0,.792-.9l.234-2.119a1.9,1.9,0,0,1,.93-1.449A1.94,1.94,0,0,1,22.214,24.144Zm-6.746-4.1a4.511,4.511,0,1,1,4.511-4.511A4.511,4.511,0,0,1,15.468,20.043Z" transform="translate(-2.5 -2)"/></svg>