<svg xmlns="http://www.w3.org/2000/svg" width="23.335" height="23.336" viewBox="0 0 23.335 23.336"><defs><style>.a{fill:#22448b;}</style></defs><g transform="translate(-2.5 -3.5)"><path class="a" d="M2.5,4.5a1,1,0,0,1,1-1h.744A2.8,2.8,0,0,1,6.7,5.144a8.742,8.742,0,0,1,.662,1.695q.066-.005.135-.005H24.167a1.667,1.667,0,0,1,1.6,2.124L23.333,17.5a3.667,3.667,0,0,1-3.526,2.662H11.874a3.667,3.667,0,0,1-3.536-2.7l-1.014-3.7L5.645,8.108l0-.01a9.721,9.721,0,0,0-.692-1.993c-.281-.513-.505-.605-.706-.605H3.5A1,1,0,0,1,2.5,4.5Z" transform="translate(0)"/><path class="a" d="M9.667,22.334A2.667,2.667,0,1,0,7,19.667,2.667,2.667,0,0,0,9.667,22.334Z" transform="translate(1.501 4.502)"/><path class="a" d="M16.667,22.334A2.667,2.667,0,1,0,14,19.667,2.667,2.667,0,0,0,16.667,22.334Z" transform="translate(3.835 4.502)"/></g></svg>