<svg xmlns="http://www.w3.org/2000/svg" width="13.058" height="16.322" viewBox="0 0 13.058 16.322"><defs><style>.a{fill:#d8d6d6;}</style></defs><path class="a" d="M15.222,2.007a1.836,1.836,0,0,1,1.832,1.711l0,.126V16.492a1.836,1.836,0,0,1-1.711,1.832l-.126,0H5.837A1.836,1.836,0,0,1,4,16.618l0-.126V3.843A1.836,1.836,0,0,1,5.711,2.011l.126,0ZM7.061,6.082a.612.612,0,0,0,0,1.224H14a.612.612,0,1,0,0-1.224ZM6.449,9.959a.612.612,0,0,0,.612.612H14a.612.612,0,1,0,0-1.224H7.061A.612.612,0,0,0,6.449,9.959Zm.612,2.653a.612.612,0,0,0,0,1.224H14a.612.612,0,1,0,0-1.224Z" transform="translate(-4 -2.007)"/></svg>