<svg width="16" height="16" viewBox="0 0 16 16" fill="none" xmlns="http://www.w3.org/2000/svg">
<mask id="mask0" mask-type="alpha" maskUnits="userSpaceOnUse" x="1" y="1" width="14" height="14">
<path fill-rule="evenodd" clip-rule="evenodd" d="M8.00052 2.36646C4.88932 2.36646 2.36719 4.88858 2.36719 7.99979C2.36719 11.111 4.88932 13.6331 8.00052 13.6331C11.1117 13.6331 13.6339 11.111 13.6339 7.99979C13.6339 4.88858 11.1117 2.36646 8.00052 2.36646ZM1.36719 7.99979C1.36719 4.3363 4.33703 1.36646 8.00052 1.36646C11.664 1.36646 14.6339 4.3363 14.6339 7.99979C14.6339 11.6633 11.664 14.6331 8.00052 14.6331C4.33703 14.6331 1.36719 11.6633 1.36719 7.99979ZM8.00049 6.63312C8.27663 6.63312 8.50049 6.85698 8.50049 7.13312V10.1331C8.50049 10.4093 8.27663 10.6331 8.00049 10.6331C7.72435 10.6331 7.50049 10.4093 7.50049 10.1331V7.13312C7.50049 6.85698 7.72435 6.63312 8.00049 6.63312ZM8.53379 5.13311C8.53379 5.42766 8.29501 5.66645 8.00046 5.66645C7.7059 5.66645 7.46712 5.42766 7.46712 5.13311C7.46712 4.83856 7.7059 4.59978 8.00046 4.59978C8.29501 4.59978 8.53379 4.83856 8.53379 5.13311Z" fill="#101010"/>
</mask>
<g mask="url(#mask0)">
<rect width="16" height="16" fill="#101010"/>
</g>
</svg>
