<svg xmlns="http://www.w3.org/2000/svg" xmlns:xlink="http://www.w3.org/1999/xlink" width="1366" height="310" viewBox="0 0 1366 310"><defs><style>.a,.d,.f{fill:#fff;}.a{stroke:#707070;}.b{clip-path:url(#a);}.c{opacity:0.14;}.d,.e{opacity:0.62;}.e,.g{fill:none;stroke:#fff;}.f{opacity:0.13;}.g{opacity:0.21;}</style><clipPath id="a"><rect class="a" width="1366" height="310" transform="translate(0 2093)"/></clipPath></defs><g class="b" transform="translate(0 -2093)"><g class="c" transform="translate(162.569 2428.93) rotate(-155)"><path class="d" d="M174.881,250.081c25.859-94.174,412.358-90.55,428.2-19.881C613.809,278.035,445.9,316.6,431.8,438.769c-9.02,78.162,53.391,117.129,30.586,156.934-40.055,69.916-280.559,33.372-295.154-35.174-8.658-40.661,68.376-59.9,77.379-134.023C254.965,341.288,161.3,299.534,174.881,250.081Z" transform="matrix(0.985, 0.174, -0.174, 0.985, -93.401, -188.854)"/><path class="e" d="M175.374,254.345c27.392-99.759,436.812-95.92,453.6-21.06,11.361,50.672-166.5,91.522-181.439,220.938-9.555,82.8,56.557,124.075,32.4,166.24-42.431,74.063-297.2,35.351-312.658-37.26-9.171-43.072,72.431-63.452,81.968-141.971C260.208,350.961,160.99,306.731,175.374,254.345Z" transform="matrix(0.985, 0.174, -0.174, 0.985, -140.91, -207.377)"/><path class="f" d="M207.881,255.08c25.859-94.174,412.358-90.55,428.2-19.881C646.809,283.035,478.9,321.6,464.8,443.768c-9.02,78.162,53.391,117.129,30.586,156.934-40.056,69.916-280.559,33.372-295.155-35.174-8.657-40.661,68.376-59.9,77.38-134.023C287.966,346.288,194.3,304.533,207.881,255.08Z" transform="translate(-1484.212 397.782) rotate(-17)"/><path class="g" d="M207.881,255.08c25.859-94.174,412.358-90.55,428.2-19.881C646.809,283.035,478.9,321.6,464.8,443.768c-9.02,78.162,53.391,117.129,30.586,156.934-40.056,69.916-280.559,33.372-295.155-35.174-8.657-40.661,68.376-59.9,77.38-134.023C287.966,346.288,194.3,304.533,207.881,255.08Z" transform="translate(-1448.39 376.293) rotate(-17)"/></g></g></svg>