<svg xmlns="http://www.w3.org/2000/svg" xmlns:xlink="http://www.w3.org/1999/xlink" width="1366" height="292" viewBox="0 0 1366 292"><defs><style>.a,.f{fill:#fff;}.a{stroke:#707070;}.b{clip-path:url(#a);}.c{fill:url(#b);}.d{opacity:0.06;}.e{opacity:0.04;}</style><clipPath id="a"><rect class="a" width="1366" height="292" transform="translate(0 83)"/></clipPath><linearGradient id="b" x1="0.5" x2="0.5" y2="2.078" gradientUnits="objectBoundingBox"><stop offset="0" stop-color="#008ecf"/><stop offset="1" stop-color="#005691"/></linearGradient></defs><g class="b" transform="translate(0 -83)"><rect class="c" width="1366" height="292" transform="translate(0 83)"/><g class="d" transform="translate(217.686 126.492) rotate(-51)"><path d="M104.1,9.586a104.1,104.1,0,1,0,104.1,104.1A104.1,104.1,0,0,0,104.1,9.586Zm0,198.487a94.384,94.384,0,1,1,94.384-94.384A94.384,94.384,0,0,1,104.1,208.073Z" transform="translate(0 -9.586)"/><path d="M133.05,27.686h-7.127V63.323H54.432V27.686H47.089a77.89,77.89,0,0,0,0,130.021h7.343V122.07h71.49v35.637h7.127a77.89,77.89,0,0,0,0-130.021ZM44.5,143.668a68.189,68.189,0,0,1,0-101.943Zm81.425-31.533H54.432V73.042h71.49Zm9.719,31.317v-21.6h0V63.323h0v-21.6a68.379,68.379,0,0,1,0,101.727Z" transform="translate(14.034 11.407)"/></g><g class="e" transform="translate(1072.686 378.492) rotate(-51)"><path class="f" d="M104.1,9.586a104.1,104.1,0,1,0,104.1,104.1A104.1,104.1,0,0,0,104.1,9.586Zm0,198.487a94.384,94.384,0,1,1,94.384-94.384A94.384,94.384,0,0,1,104.1,208.073Z" transform="translate(0 -9.586)"/><path class="f" d="M133.05,27.686h-7.127V63.323H54.432V27.686H47.089a77.89,77.89,0,0,0,0,130.021h7.343V122.07h71.49v35.637h7.127a77.89,77.89,0,0,0,0-130.021ZM44.5,143.668a68.189,68.189,0,0,1,0-101.943Zm81.425-31.533H54.432V73.042h71.49Zm9.719,31.317v-21.6h0V63.323h0v-21.6a68.379,68.379,0,0,1,0,101.727Z" transform="translate(14.034 11.407)"/></g></g></svg>