<svg xmlns="http://www.w3.org/2000/svg" xmlns:xlink="http://www.w3.org/1999/xlink" width="1366" height="413" viewBox="0 0 1366 413"><defs><style>.a{fill:url(#a);}.b{clip-path:url(#b);}.c{fill:url(#c);}.d{fill:url(#d);}.e{fill:url(#e);}.f{fill:url(#f);}.g{fill:url(#g);}.h{fill:url(#h);}.i{fill:url(#i);}.j{fill:url(#j);}</style><linearGradient id="a" x1="0.5" x2="0.5" y2="2.078" gradientUnits="objectBoundingBox"><stop offset="0" stop-color="#008ecf"/><stop offset="1" stop-color="#005691"/></linearGradient><clipPath id="b"><rect class="a" width="1366" height="413" transform="translate(0 1258.885)"/></clipPath><linearGradient id="c" x1="3.302" y1="13.5" x2="3.302" y2="9.075" gradientUnits="objectBoundingBox"><stop offset="0" stop-color="#f7f8f8"/><stop offset="0.501" stop-color="#ebeceb"/><stop offset="1" stop-color="#e6e7e7"/></linearGradient><linearGradient id="d" x1="3.065" y1="7.29" x2="3.367" y2="8.366" gradientUnits="objectBoundingBox"><stop offset="0" stop-color="#f2f2f2"/><stop offset="1" stop-color="#e6e7e7"/></linearGradient><linearGradient id="e" x1="5.848" y1="15.32" x2="6.154" y2="17.182" gradientUnits="objectBoundingBox"><stop offset="0" stop-color="#f2f2f2"/><stop offset="1" stop-color="#ececed"/></linearGradient><linearGradient id="f" x1="3.51" y1="16.987" x2="3.51" y2="11.747" gradientUnits="objectBoundingBox"><stop offset="0" stop-color="#f7f8f8"/><stop offset="1" stop-color="#e6e7e7"/></linearGradient><linearGradient id="g" x1="2.987" y1="11.264" x2="2.987" y2="7.161" xlink:href="#d"/><linearGradient id="h" x1="6.384" y1="19.222" x2="6.672" y2="21.108" xlink:href="#e"/><linearGradient id="i" x1="2.712" y1="5.913" x2="2.975" y2="9.551" xlink:href="#f"/><linearGradient id="j" x1="2.75" y1="16.92" x2="2.53" y2="9.675" xlink:href="#f"/></defs><g class="b" transform="translate(0 -1258.885)"><g transform="translate(-292.124 566.891)"><path class="c" d="M1576.351,201.192c-161.522-10.259-347.776-58.37-544.848-109.312-31.686-8.136-63.372-16.273-96.218-24.763-34.778,8.137-69.555,16.627-103.173,24.763-211.757,50.941-411.921,99.407-585.422,109.312-134.86,7.783-235.328-8.137-321.886-52V416.633c116.312,43.866,185.094,59.785,319.954,52,173.5-10.259,373.666-58.37,585.422-109.312,313.771-75.7,675.457-163.083,1044.486-135.136v-75c-80.761,43.866-172.728,59.785-298.314,52Z" transform="translate(75.196 273.554)"/><path class="d" d="M830.18,245.744c-211.757,50.942-411.921,99.407-585.422,109.312-134.86,7.783-203.642-8.136-319.954-52v206.6c343.139-32.9,678.935,21.933,1061.1,79.242,222.963,33.253,453.267,67.922,640.293,76.766,134.473,6.368,208.665-2.123,248.466-10.259V110.608c-369.028-28.3-730.715,59.432-1044.486,135.136Z" transform="translate(75.196 387.133)"/><path class="e" d="M157.051,153.837c32.459,8.137,64.532,16.627,96.218,24.763,197.073,50.941,383.326,99.407,544.848,109.312,125.586,7.783,217.553-8.136,298.314-52V43.463C766.817,18.346,445.318,85.207,157.051,153.837Z" transform="translate(853.817 186.835)"/><path class="f" d="M-75.2,229.609c352.026-62.262,702.507,14.15,1010.868,92.685,288.267-68.276,609.766-135.136,938.994-110.019V-18.377H-75.2Z" transform="translate(75.196 18.377)"/><path class="g" d="M1626.2,370.214c-187.026-8.844-417.331-43.512-640.294-76.766-382.167-57.309-717.963-112.5-1061.1-79.242V626.69c72.646,8.137,122.108,16.627,266.242,10.259,200.937-8.844,448.63-43.512,688.209-76.766,352.8-49.173,692.46-96.577,995.411-88.086V359.955c-40.187,8.136-113.993,16.627-248.466,10.259Z" transform="translate(75.196 682.577)"/><path class="h" d="M246.689,287.728c173.5-10.259,373.665-58.37,585.422-109.312,34-8.137,68.4-16.627,103.173-24.763C627.31,75.119,276.83-1.294-75.2,60.968V235.726C11.361,279.592,112.216,295.511,246.689,287.728Z" transform="translate(75.196 187.018)"/><path class="i" d="M879.255,360.489c-239.579,33.253-487.272,67.922-688.209,76.766C46.912,443.623-2.55,435.132-75.2,427V668.614c255.422-8.844,542.53,8.844,1022.847,40.682,277.061,18.4,703.279,46.7,927.015,41.036V272.049c-302.951-8.49-642.612,39.267-995.411,88.44Z" transform="translate(75.196 882.271)"/><path class="j" d="M947.65,413.216C467.334,381.378,180.226,363.69-75.2,372.534V618.4l1949.862.354V453.9C1650.93,459.559,1224.712,431.258,947.65,413.216Z" transform="translate(75.196 1178.352)"/></g></g></svg>