<svg width="24" height="24" viewBox="0 0 24 24" fill="none" xmlns="http://www.w3.org/2000/svg">
<path d="M0.292196 9.83773L5.69591 15.3614L4.41991 23.1593C4.30151 23.8795 4.70684 24.188 5.32284 23.8476L11.9996 20.1651L18.6772 23.8476C19.2942 24.188 19.699 23.8795 19.5804 23.1593L18.3055 15.3614L23.7076 9.83773C24.2062 9.32785 24.0516 8.82944 23.3625 8.72483L15.8977 7.58704L12.5583 0.491491C12.2497 -0.16383 11.7505 -0.16383 11.4415 0.491491L8.10336 7.58676L0.638061 8.72455C-0.0523357 8.82916 -0.205668 9.32785 0.292196 9.83773Z" fill="#FBFBFB"/>
<path d="M12.5583 0.491491C12.2497 -0.16383 11.7505 -0.16383 11.4415 0.491491L8.10336 7.58676L0.638061 8.72455C-0.0523357 8.82916 -0.205668 9.32785 0.292196 9.83773M12.5583 0.491491L12.0092 0.749894C12.0062 0.749964 12.0032 0.75 12.0001 0.75C11.9969 0.75 11.9938 0.749963 11.9907 0.749889L11.4415 0.491501L11.9893 0.749853C11.8817 0.746913 11.8187 0.700715 11.8074 0.690917C11.8068 0.690432 11.8065 0.690184 11.8065 0.690195C11.8064 0.690323 11.8371 0.720472 11.8797 0.810868C11.8797 0.8109 11.8797 0.810931 11.8797 0.810963L11.9999 1.06631M12.5583 0.491491L12.0094 0.749889C12.1178 0.747322 12.1812 0.700795 12.1925 0.691087C12.193 0.69062 12.1933 0.690381 12.1933 0.690392C12.1934 0.690518 12.1626 0.720718 12.1199 0.811329C12.1198 0.811358 12.1198 0.811386 12.1198 0.811415L11.9999 1.06631M12.5583 0.491491L15.8977 7.58704L23.3625 8.72483C24.0516 8.82944 24.2062 9.32785 23.7076 9.83773L18.3055 15.3614L19.5804 23.1593C19.699 23.8795 19.2942 24.188 18.6772 23.8476L11.9996 20.1651L5.32284 23.8476C4.70684 24.188 4.30151 23.8795 4.41991 23.1593L5.69591 15.3614L0.292196 9.83773M11.9999 1.06631L8.78201 7.90604L8.61175 8.26793L8.21637 8.32819L0.948322 9.43592M11.9999 1.06631L15.2191 7.90641L15.3894 8.26822L15.7847 8.32847L23.0513 9.43606M0.948322 9.43592L0.828812 9.31376C0.828661 9.31361 0.82851 9.31345 0.828359 9.3133C0.828344 9.31328 0.82833 9.31327 0.828316 9.31325C0.760458 9.24365 0.742786 9.20343 0.741751 9.20108C0.741701 9.20096 0.74169 9.20094 0.741713 9.201C0.743989 9.20709 0.762355 9.26581 0.735959 9.35104C0.735427 9.35276 0.734882 9.35447 0.734326 9.35616C0.734197 9.35656 0.734068 9.35695 0.733938 9.35734C0.721557 9.39462 0.703526 9.42637 0.684163 9.45107C0.664259 9.47645 0.646801 9.48958 0.640051 9.4941C0.638581 9.49508 0.637814 9.49554 0.637827 9.49556C0.637848 9.4956 0.640257 9.4943 0.64546 9.49214L0.292196 9.83773M0.948322 9.43592L0.751064 9.46599L0.750415 9.46609C0.693222 9.47475 0.660835 9.48587 0.646617 9.49166L0.292196 9.83773M0.948322 9.43592L6.23203 14.8369L6.49733 15.1081L6.43606 15.4825L5.19595 23.0611M5.19595 23.0611L4.96063 23.1908L4.9601 23.1911C4.91533 23.2159 4.88495 23.2274 4.86847 23.2327C4.86823 23.2327 4.868 23.2328 4.86776 23.2329C4.85835 23.2358 4.8537 23.2367 4.85371 23.2367C4.85372 23.2368 4.85527 23.2366 4.85834 23.2364C4.86925 23.2357 4.89578 23.2357 4.93261 23.2457C4.9566 23.2523 4.98196 23.2623 5.00713 23.2762C5.00742 23.2764 5.0077 23.2766 5.00799 23.2767C5.02233 23.2847 5.0366 23.294 5.05053 23.3046C5.13199 23.3667 5.15136 23.4339 5.15236 23.438L5.15239 23.4381C5.15239 23.4381 5.14972 23.4263 5.14939 23.4002C5.14905 23.3729 5.15134 23.3335 5.15998 23.2809L5.16007 23.2804L5.19595 23.0611ZM5.19595 23.0611L11.6374 19.5084L11.9996 19.3086L12.3618 19.5084L18.8044 23.0613M18.8044 23.0613L18.8402 23.2803L18.8404 23.2812C18.849 23.3338 18.8513 23.3733 18.851 23.4006C18.8507 23.4281 18.8477 23.4397 18.8481 23.4383C18.8491 23.4343 18.8685 23.3668 18.9501 23.3046C18.9637 23.2942 18.9777 23.2851 18.9917 23.2773C18.9917 23.2772 18.9918 23.2772 18.9918 23.2772C19.0176 23.2627 19.0436 23.2524 19.0681 23.2457C19.1049 23.2357 19.1314 23.2357 19.1422 23.2364C19.1452 23.2366 19.1467 23.2368 19.1467 23.2367C19.1467 23.2366 19.1421 23.2358 19.1329 23.233C19.1325 23.2329 19.1321 23.2327 19.1317 23.2326C19.1151 23.2273 19.0845 23.2157 19.0394 23.1909L19.0394 23.1908L18.8044 23.0613ZM18.8044 23.0613L17.5653 15.4824L17.5041 15.1081L17.7693 14.837L23.0513 9.43606M23.0513 9.43606L23.2495 9.46627L23.2499 9.46633C23.3083 9.4752 23.3407 9.48662 23.3543 9.49226C23.3596 9.49445 23.362 9.49576 23.362 9.49572C23.3621 9.4957 23.3613 9.49525 23.3598 9.49427C23.3531 9.48976 23.3357 9.47668 23.3158 9.45136C23.2966 9.42686 23.2787 9.39538 23.2663 9.35838C23.2662 9.35812 23.2661 9.35785 23.266 9.35758C23.2654 9.35556 23.2647 9.35352 23.2641 9.35147C23.2376 9.26621 23.256 9.20733 23.2584 9.20095C23.2584 9.20087 23.2584 9.2009 23.2583 9.20103C23.2572 9.20355 23.2394 9.24379 23.1714 9.31333L23.2596 9.39966L23.1714 9.31333L23.0513 9.43606Z" stroke="#101010" stroke-opacity="0.07" stroke-width="1.5"/>
</svg>
