<svg xmlns="http://www.w3.org/2000/svg" width="27.65" height="26.114" viewBox="0 0 27.65 26.114"><defs><style>.a{fill:#614299;}</style></defs><g transform="translate(-3 -3)"><g transform="translate(3 3)"><path class="a" d="M21.817,3a1.152,1.152,0,0,1,1.152,1.152V9.144h2.688a4.992,4.992,0,0,1,4.992,4.992v9.985a4.992,4.992,0,0,1-4.992,4.992H7.992A4.992,4.992,0,0,1,3,24.121V14.137A4.992,4.992,0,0,1,7.992,9.144h2.688V4.152a1.152,1.152,0,0,1,1-1.142L11.833,3ZM20.665,5.3H12.985v3.84h7.681Z" transform="translate(-3 -3)"/></g></g></svg>