<svg xmlns="http://www.w3.org/2000/svg" width="16" height="14" viewBox="0 0 16 14"><defs><style>.a{fill:#d8d6d6;}</style></defs><g transform="translate(-2 -3)"><path class="a" d="M13.5,3A1.5,1.5,0,0,1,15,4.5V5h.5A2.5,2.5,0,0,1,18,7.5v5A1.5,1.5,0,0,1,16.5,14H15v1.5A1.5,1.5,0,0,1,13.5,17h-7A1.5,1.5,0,0,1,5,15.5V14H3.5A1.5,1.5,0,0,1,2,12.5v-5A2.5,2.5,0,0,1,4.5,5H5V4.5A1.5,1.5,0,0,1,6.5,3Zm0,8h-7a.5.5,0,0,0-.5.5H6v4a.5.5,0,0,0,.5.5h7a.5.5,0,0,0,.5-.5h0v-4a.5.5,0,0,0-.5-.5Zm0-7h-7a.5.5,0,0,0-.5.5H6V5h8V4.5a.5.5,0,0,0-.5-.5Z"/></g></svg>