<svg xmlns="http://www.w3.org/2000/svg" width="22.634" height="28.292" viewBox="0 0 22.634 28.292"><defs><style>.a{fill:#da2228;}</style></defs><g transform="translate(-4 -2)"><g transform="translate(4 2)"><path class="a" d="M17.793,4.122H12.841a1.061,1.061,0,1,0,0,2.122h4.951a1.061,1.061,0,0,0,0-2.122Zm0-2.122a3.184,3.184,0,0,1,3.154,2.751l.019.191-.01-.114h2.5a3.183,3.183,0,0,1,3.183,3.183v19.1a3.183,3.183,0,0,1-3.183,3.183H7.183A3.183,3.183,0,0,1,4,27.109V8.012A3.183,3.183,0,0,1,7.183,4.829h2.5l-.011.114.021-.191A3.184,3.184,0,0,1,12.841,2Zm.354,21.219H9.658a1.061,1.061,0,1,0,0,2.122h8.488a1.061,1.061,0,0,0,0-2.122Zm-2.829-5.658H9.658a1.061,1.061,0,1,0,0,2.122h5.658a1.061,1.061,0,1,0,0-2.122ZM20.975,11.9H9.658a1.061,1.061,0,1,0,0,2.122H20.975a1.061,1.061,0,1,0,0-2.122Z" transform="translate(-4 -2)"/></g></g></svg>