<svg xmlns="http://www.w3.org/2000/svg" width="25.063" height="15.664" viewBox="0 0 25.063 15.664"><defs><style>.a{fill:#02accd;}</style></defs><g transform="translate(-2 -5)"><g transform="translate(2 5)"><path class="a" d="M27.063,11.266v6.266a3.133,3.133,0,0,1-3.133,3.133H5.133A3.133,3.133,0,0,1,2,17.531V11.266Zm-3.916,4.7H20.014a.783.783,0,0,0,0,1.566h3.133a.783.783,0,0,0,0-1.566ZM23.93,5a3.133,3.133,0,0,1,3.133,3.133V9.7H2V8.133A3.133,3.133,0,0,1,5.133,5Z" transform="translate(-2 -5)"/></g></g></svg>