<svg xmlns="http://www.w3.org/2000/svg" width="25.845" height="25.146" viewBox="0 0 25.845 25.146"><defs><style>.a{fill:#af2b42;}</style></defs><g transform="translate(-2.5 -3)"><g transform="translate(2.5 3)"><path class="a" d="M23.8,3a4.54,4.54,0,0,1,4.54,4.54V23.606a4.54,4.54,0,0,1-4.54,4.54H7.739a4.54,4.54,0,0,1-4.54-4.54V11.9A3.143,3.143,0,1,0,3.511,5.88,4.543,4.543,0,0,1,7.739,3ZM17.512,16.974H11.228l-.142.009a1.048,1.048,0,0,0,0,2.076l.142.01h6.284l.142-.01a1.048,1.048,0,0,0-.142-2.086Zm2.8-4.9H11.228l-.142.01a1.048,1.048,0,0,0,0,2.076l.142.009h9.087l.142-.009a1.048,1.048,0,0,0-.142-2.086ZM4.246,7.191A1.746,1.746,0,1,1,2.5,8.937,1.746,1.746,0,0,1,4.246,7.191Z" transform="translate(-2.5 -3)"/></g></g></svg>