<svg xmlns="http://www.w3.org/2000/svg" width="48.294" height="44.657" viewBox="0 0 48.294 44.657"><defs><style>.a{fill:#032261;}</style></defs><g transform="translate(-1.991 -2.5)"><g transform="translate(1.991 2.5)"><path class="a" d="M23.506,3.181a5.429,5.429,0,0,1,7.179,1.786l.2.333,18.72,33.8a5.429,5.429,0,0,1-4.377,8.046l-.372.013H7.421A5.429,5.429,0,0,1,2.5,39.444l.176-.346L21.387,5.3A5.429,5.429,0,0,1,23.506,3.181Zm2.634,31.9a2.409,2.409,0,1,0,2.41,2.409A2.409,2.409,0,0,0,26.14,35.076Zm-.005-19.311a2.413,2.413,0,0,0-2.4,2.132l-.016.281,0,12.066.016.281a2.413,2.413,0,0,0,4.793,0l.016-.281,0-12.066-.016-.281A2.413,2.413,0,0,0,26.135,15.765Z" transform="translate(-1.991 -2.5)"/></g></g></svg>